<svg xmlns="http://www.w3.org/2000/svg" xmlns:xlink="http://www.w3.org/1999/xlink" width="500" zoomAndPan="magnify" viewBox="0 0 375 374.999991" height="500" preserveAspectRatio="xMidYMid meet" version="1.0"><defs><g/><clipPath id="417a0c116c"><path d="M 6.933594 5.277344 L 368.972656 5.277344 L 368.972656 367.3125 L 6.933594 367.3125 Z M 6.933594 5.277344 " clip-rule="nonzero"/></clipPath><clipPath id="adcdcc1a54"><path d="M 187.953125 5.277344 C 87.980469 5.277344 6.933594 86.320312 6.933594 186.292969 C 6.933594 286.269531 87.980469 367.3125 187.953125 367.3125 C 287.925781 367.3125 368.972656 286.269531 368.972656 186.292969 C 368.972656 86.320312 287.925781 5.277344 187.953125 5.277344 Z M 187.953125 5.277344 " clip-rule="nonzero"/></clipPath><clipPath id="7aae313671"><path d="M 35.65625 33.996094 L 340.25 33.996094 L 340.25 338.589844 L 35.65625 338.589844 Z M 35.65625 33.996094 " clip-rule="nonzero"/></clipPath><clipPath id="58aa6a5c46"><path d="M 187.953125 33.996094 C 103.839844 33.996094 35.65625 102.183594 35.65625 186.292969 C 35.65625 270.40625 103.839844 338.589844 187.953125 338.589844 C 272.0625 338.589844 340.25 270.40625 340.25 186.292969 C 340.25 102.183594 272.0625 33.996094 187.953125 33.996094 Z M 187.953125 33.996094 " clip-rule="nonzero"/></clipPath><clipPath id="2560c272cb"><path d="M 120.671875 112 L 299.753906 112 L 299.753906 175.027344 L 120.671875 175.027344 Z M 120.671875 112 " clip-rule="nonzero"/></clipPath><clipPath id="779f92119b"><path d="M 127 111.820312 L 291 111.820312 L 291 154 L 127 154 Z M 127 111.820312 " clip-rule="nonzero"/></clipPath></defs><g clip-path="url(#417a0c116c)"><g clip-path="url(#adcdcc1a54)"><path fill="#f7b9a1" d="M 6.933594 5.277344 L 368.972656 5.277344 L 368.972656 367.3125 L 6.933594 367.3125 Z M 6.933594 5.277344 " fill-opacity="1" fill-rule="nonzero"/></g></g><g clip-path="url(#7aae313671)"><g clip-path="url(#58aa6a5c46)"><path fill="#ed5b2d" d="M 35.65625 33.996094 L 340.25 33.996094 L 340.25 338.589844 L 35.65625 338.589844 Z M 35.65625 33.996094 " fill-opacity="1" fill-rule="nonzero"/></g></g><g clip-path="url(#2560c272cb)"><path fill="#ffffff" d="M 130.472656 168.898438 L 120.671875 167.617188 L 122.035156 114.992188 L 134.121094 114.394531 Z M 133.441406 119.59375 C 133.550781 120.113281 133.929688 173.828125 133.929688 173.828125 L 142.179688 172.546875 L 144.414062 117.417969 Z M 147 113.742188 L 146.210938 168.84375 L 154.894531 167.292969 L 157.96875 114.230469 Z M 159.332031 117.636719 L 161.046875 171.867188 L 171.417969 171.867188 L 170.058594 118.777344 Z M 173.027344 115.484375 L 173.027344 167.183594 L 181.902344 167.808594 L 184.921875 116.492188 Z M 186.527344 114.203125 L 185.65625 168.816406 L 194.613281 170.476562 L 195.242188 112.816406 Z M 197.335938 116.492188 L 198.179688 173.007812 C 198.179688 173.007812 207.65625 172.109375 207.65625 171.867188 C 207.65625 171.621094 208.253906 117.742188 208.253906 117.742188 Z M 220.179688 170.421875 L 211.113281 169.199219 L 212.609375 116.601562 L 223.800781 115.945312 Z M 224.941406 121.039062 C 225.078125 121.554688 225.433594 175.269531 225.433594 175.269531 L 233.710938 174.015625 L 235.914062 118.886719 Z M 238.527344 113.742188 L 237.738281 168.816406 L 246.421875 167.265625 L 249.5 114.230469 Z M 250.859375 117.636719 L 252.574219 171.867188 L 262.949219 171.867188 L 261.585938 118.777344 Z M 264.554688 115.484375 L 264.554688 167.183594 L 273.429688 167.808594 L 276.453125 116.492188 Z M 278.03125 114.203125 L 277.160156 168.816406 L 286.144531 170.476562 L 286.769531 112.816406 Z M 288.839844 116.492188 L 289.710938 173.007812 C 289.710938 173.007812 299.457031 172.109375 299.457031 171.867188 C 299.457031 171.621094 300.082031 117.742188 300.082031 117.742188 Z M 288.839844 116.492188 " fill-opacity="1" fill-rule="nonzero"/></g><g clip-path="url(#779f92119b)"><path fill="#342d2b" d="M 290.472656 151.3125 C 290.390625 151.011719 290.144531 118.640625 290.144531 118.640625 L 284.566406 119.40625 L 283.066406 152.617188 Z M 141.527344 119.511719 L 140.957031 152.699219 L 147.296875 151.773438 L 149.53125 119.8125 Z M 278.195312 145.730469 L 278.792969 112.84375 L 272.585938 111.835938 L 272.148438 146.574219 Z M 265.835938 153.136719 L 265.234375 119.078125 C 265.234375 119.078125 258.484375 119.621094 258.484375 119.757812 C 258.484375 119.894531 258.046875 152.347656 258.046875 152.347656 Z M 234.363281 119.703125 L 240.734375 120.4375 L 239.753906 152.128906 L 231.886719 152.535156 Z M 227.609375 150.085938 C 227.53125 149.785156 227.285156 117.417969 227.285156 117.417969 L 221.566406 118.179688 L 220.042969 151.394531 Z M 201.421875 146.984375 L 201.992188 113.796875 L 195.675781 114.722656 L 193.417969 146.683594 Z M 189.277344 151.339844 L 189.496094 121.28125 L 182.28125 121.28125 L 183.234375 153.273438 Z M 175.613281 151.882812 L 175.613281 120.738281 L 169.433594 120.355469 L 167.335938 151.285156 Z M 135.59375 151.039062 L 134.964844 116.980469 C 134.964844 116.980469 127.859375 117.527344 127.859375 117.660156 C 127.859375 117.796875 127.398438 150.25 127.398438 150.25 Z M 135.59375 151.039062 " fill-opacity="1" fill-rule="nonzero"/></g><g fill="#ed5b2d" fill-opacity="0.302"><g transform="translate(186.677494, 266.07475)"><g><path d="M 20.6875 -15.234375 C 21.945312 -14.566406 22.925781 -13.632812 23.625 -12.4375 C 24.332031 -11.25 24.6875 -9.882812 24.6875 -8.34375 C 24.6875 -6.800781 24.28125 -5.394531 23.46875 -4.125 C 22.65625 -2.863281 21.550781 -1.859375 20.15625 -1.109375 C 18.769531 -0.367188 17.253906 0 15.609375 0 L 3.296875 0 L 3.296875 -28.890625 L 15.28125 -28.890625 C 16.925781 -28.890625 18.398438 -28.566406 19.703125 -27.921875 C 21.015625 -27.273438 22.046875 -26.390625 22.796875 -25.265625 C 23.554688 -24.140625 23.9375 -22.875 23.9375 -21.46875 C 23.9375 -20.226562 23.644531 -19.054688 23.0625 -17.953125 C 22.488281 -16.859375 21.695312 -15.953125 20.6875 -15.234375 Z M 17.875 -20.46875 C 17.875 -21.382812 17.582031 -22.128906 17 -22.703125 C 16.425781 -23.285156 15.644531 -23.578125 14.65625 -23.578125 L 9.453125 -23.578125 L 9.453125 -17.421875 L 14.65625 -17.421875 C 15.644531 -17.421875 16.425781 -17.707031 17 -18.28125 C 17.582031 -18.863281 17.875 -19.59375 17.875 -20.46875 Z M 14.984375 -5.734375 C 16.023438 -5.734375 16.851562 -6.035156 17.46875 -6.640625 C 18.09375 -7.242188 18.40625 -8.03125 18.40625 -9 C 18.40625 -9.9375 18.09375 -10.707031 17.46875 -11.3125 C 16.851562 -11.914062 16.023438 -12.21875 14.984375 -12.21875 L 9.453125 -12.21875 L 9.453125 -5.734375 Z M 14.984375 -5.734375 "/></g></g></g><g fill="#ed5b2d" fill-opacity="0.302"><g transform="translate(213.17953, 266.07475)"><g><path d="M 22.5 0 L 20.46875 -5.484375 L 8.953125 -5.484375 L 6.96875 0 L 0.375 0 L 11.6875 -28.890625 L 17.578125 -28.890625 L 29.265625 0 Z M 14.703125 -21.265625 L 10.9375 -10.9375 L 18.5 -10.9375 Z M 14.703125 -21.265625 "/></g></g></g><g fill="#ed5b2d" fill-opacity="0.302"><g transform="translate(242.818875, 266.07475)"><g><path d="M 21.625 -28.890625 L 27.734375 -28.890625 L 27.734375 0 L 22.546875 0 L 9.453125 -18.046875 L 9.453125 0 L 3.296875 0 L 3.296875 -28.890625 L 8.953125 -28.890625 L 21.625 -11.265625 Z M 21.625 -28.890625 "/></g></g></g><g fill="#ed5b2d" fill-opacity="0.302"><g transform="translate(273.861756, 266.07475)"><g><path d="M 14.234375 -28.890625 C 16.359375 -28.890625 18.3125 -28.53125 20.09375 -27.8125 C 21.882812 -27.101562 23.429688 -26.101562 24.734375 -24.8125 C 26.046875 -23.519531 27.066406 -22 27.796875 -20.25 C 28.523438 -18.5 28.890625 -16.578125 28.890625 -14.484375 C 28.890625 -12.398438 28.523438 -10.472656 27.796875 -8.703125 C 27.066406 -6.941406 26.046875 -5.40625 24.734375 -4.09375 C 23.429688 -2.789062 21.882812 -1.78125 20.09375 -1.0625 C 18.3125 -0.351562 16.359375 0 14.234375 0 L 3.296875 0 L 3.296875 -28.890625 Z M 14.078125 -5.828125 C 15.722656 -5.828125 17.179688 -6.195312 18.453125 -6.9375 C 19.722656 -7.675781 20.710938 -8.695312 21.421875 -10 C 22.140625 -11.3125 22.5 -12.804688 22.5 -14.484375 C 22.5 -16.171875 22.140625 -17.660156 21.421875 -18.953125 C 20.710938 -20.242188 19.722656 -21.253906 18.453125 -21.984375 C 17.179688 -22.710938 15.722656 -23.078125 14.078125 -23.078125 L 9.578125 -23.078125 L 9.578125 -5.828125 Z M 14.078125 -5.828125 "/></g></g></g><g fill="#ed5b2d" fill-opacity="0.502"><g transform="translate(184.852945, 264.250199)"><g><path d="M 20.6875 -15.234375 C 21.945312 -14.566406 22.925781 -13.632812 23.625 -12.4375 C 24.332031 -11.25 24.6875 -9.882812 24.6875 -8.34375 C 24.6875 -6.800781 24.28125 -5.394531 23.46875 -4.125 C 22.65625 -2.863281 21.550781 -1.859375 20.15625 -1.109375 C 18.769531 -0.367188 17.253906 0 15.609375 0 L 3.296875 0 L 3.296875 -28.890625 L 15.28125 -28.890625 C 16.925781 -28.890625 18.398438 -28.566406 19.703125 -27.921875 C 21.015625 -27.273438 22.046875 -26.390625 22.796875 -25.265625 C 23.554688 -24.140625 23.9375 -22.875 23.9375 -21.46875 C 23.9375 -20.226562 23.644531 -19.054688 23.0625 -17.953125 C 22.488281 -16.859375 21.695312 -15.953125 20.6875 -15.234375 Z M 17.875 -20.46875 C 17.875 -21.382812 17.582031 -22.128906 17 -22.703125 C 16.425781 -23.285156 15.644531 -23.578125 14.65625 -23.578125 L 9.453125 -23.578125 L 9.453125 -17.421875 L 14.65625 -17.421875 C 15.644531 -17.421875 16.425781 -17.707031 17 -18.28125 C 17.582031 -18.863281 17.875 -19.59375 17.875 -20.46875 Z M 14.984375 -5.734375 C 16.023438 -5.734375 16.851562 -6.035156 17.46875 -6.640625 C 18.09375 -7.242188 18.40625 -8.03125 18.40625 -9 C 18.40625 -9.9375 18.09375 -10.707031 17.46875 -11.3125 C 16.851562 -11.914062 16.023438 -12.21875 14.984375 -12.21875 L 9.453125 -12.21875 L 9.453125 -5.734375 Z M 14.984375 -5.734375 "/></g></g></g><g fill="#ed5b2d" fill-opacity="0.502"><g transform="translate(211.35498, 264.250199)"><g><path d="M 22.5 0 L 20.46875 -5.484375 L 8.953125 -5.484375 L 6.96875 0 L 0.375 0 L 11.6875 -28.890625 L 17.578125 -28.890625 L 29.265625 0 Z M 14.703125 -21.265625 L 10.9375 -10.9375 L 18.5 -10.9375 Z M 14.703125 -21.265625 "/></g></g></g><g fill="#ed5b2d" fill-opacity="0.502"><g transform="translate(240.994325, 264.250199)"><g><path d="M 21.625 -28.890625 L 27.734375 -28.890625 L 27.734375 0 L 22.546875 0 L 9.453125 -18.046875 L 9.453125 0 L 3.296875 0 L 3.296875 -28.890625 L 8.953125 -28.890625 L 21.625 -11.265625 Z M 21.625 -28.890625 "/></g></g></g><g fill="#ed5b2d" fill-opacity="0.502"><g transform="translate(272.037206, 264.250199)"><g><path d="M 14.234375 -28.890625 C 16.359375 -28.890625 18.3125 -28.53125 20.09375 -27.8125 C 21.882812 -27.101562 23.429688 -26.101562 24.734375 -24.8125 C 26.046875 -23.519531 27.066406 -22 27.796875 -20.25 C 28.523438 -18.5 28.890625 -16.578125 28.890625 -14.484375 C 28.890625 -12.398438 28.523438 -10.472656 27.796875 -8.703125 C 27.066406 -6.941406 26.046875 -5.40625 24.734375 -4.09375 C 23.429688 -2.789062 21.882812 -1.78125 20.09375 -1.0625 C 18.3125 -0.351562 16.359375 0 14.234375 0 L 3.296875 0 L 3.296875 -28.890625 Z M 14.078125 -5.828125 C 15.722656 -5.828125 17.179688 -6.195312 18.453125 -6.9375 C 19.722656 -7.675781 20.710938 -8.695312 21.421875 -10 C 22.140625 -11.3125 22.5 -12.804688 22.5 -14.484375 C 22.5 -16.171875 22.140625 -17.660156 21.421875 -18.953125 C 20.710938 -20.242188 19.722656 -21.253906 18.453125 -21.984375 C 17.179688 -22.710938 15.722656 -23.078125 14.078125 -23.078125 L 9.578125 -23.078125 L 9.578125 -5.828125 Z M 14.078125 -5.828125 "/></g></g></g><g fill="#291b25" fill-opacity="1"><g transform="translate(183.028393, 262.425649)"><g><path d="M 20.6875 -15.234375 C 21.945312 -14.566406 22.925781 -13.632812 23.625 -12.4375 C 24.332031 -11.25 24.6875 -9.882812 24.6875 -8.34375 C 24.6875 -6.800781 24.28125 -5.394531 23.46875 -4.125 C 22.65625 -2.863281 21.550781 -1.859375 20.15625 -1.109375 C 18.769531 -0.367188 17.253906 0 15.609375 0 L 3.296875 0 L 3.296875 -28.890625 L 15.28125 -28.890625 C 16.925781 -28.890625 18.398438 -28.566406 19.703125 -27.921875 C 21.015625 -27.273438 22.046875 -26.390625 22.796875 -25.265625 C 23.554688 -24.140625 23.9375 -22.875 23.9375 -21.46875 C 23.9375 -20.226562 23.644531 -19.054688 23.0625 -17.953125 C 22.488281 -16.859375 21.695312 -15.953125 20.6875 -15.234375 Z M 17.875 -20.46875 C 17.875 -21.382812 17.582031 -22.128906 17 -22.703125 C 16.425781 -23.285156 15.644531 -23.578125 14.65625 -23.578125 L 9.453125 -23.578125 L 9.453125 -17.421875 L 14.65625 -17.421875 C 15.644531 -17.421875 16.425781 -17.707031 17 -18.28125 C 17.582031 -18.863281 17.875 -19.59375 17.875 -20.46875 Z M 14.984375 -5.734375 C 16.023438 -5.734375 16.851562 -6.035156 17.46875 -6.640625 C 18.09375 -7.242188 18.40625 -8.03125 18.40625 -9 C 18.40625 -9.9375 18.09375 -10.707031 17.46875 -11.3125 C 16.851562 -11.914062 16.023438 -12.21875 14.984375 -12.21875 L 9.453125 -12.21875 L 9.453125 -5.734375 Z M 14.984375 -5.734375 "/></g></g></g><g fill="#291b25" fill-opacity="1"><g transform="translate(209.530428, 262.425649)"><g><path d="M 22.5 0 L 20.46875 -5.484375 L 8.953125 -5.484375 L 6.96875 0 L 0.375 0 L 11.6875 -28.890625 L 17.578125 -28.890625 L 29.265625 0 Z M 14.703125 -21.265625 L 10.9375 -10.9375 L 18.5 -10.9375 Z M 14.703125 -21.265625 "/></g></g></g><g fill="#291b25" fill-opacity="1"><g transform="translate(239.169774, 262.425649)"><g><path d="M 21.625 -28.890625 L 27.734375 -28.890625 L 27.734375 0 L 22.546875 0 L 9.453125 -18.046875 L 9.453125 0 L 3.296875 0 L 3.296875 -28.890625 L 8.953125 -28.890625 L 21.625 -11.265625 Z M 21.625 -28.890625 "/></g></g></g><g fill="#291b25" fill-opacity="1"><g transform="translate(270.212654, 262.425649)"><g><path d="M 14.234375 -28.890625 C 16.359375 -28.890625 18.3125 -28.53125 20.09375 -27.8125 C 21.882812 -27.101562 23.429688 -26.101562 24.734375 -24.8125 C 26.046875 -23.519531 27.066406 -22 27.796875 -20.25 C 28.523438 -18.5 28.890625 -16.578125 28.890625 -14.484375 C 28.890625 -12.398438 28.523438 -10.472656 27.796875 -8.703125 C 27.066406 -6.941406 26.046875 -5.40625 24.734375 -4.09375 C 23.429688 -2.789062 21.882812 -1.78125 20.09375 -1.0625 C 18.3125 -0.351562 16.359375 0 14.234375 0 L 3.296875 0 L 3.296875 -28.890625 Z M 14.078125 -5.828125 C 15.722656 -5.828125 17.179688 -6.195312 18.453125 -6.9375 C 19.722656 -7.675781 20.710938 -8.695312 21.421875 -10 C 22.140625 -11.3125 22.5 -12.804688 22.5 -14.484375 C 22.5 -16.171875 22.140625 -17.660156 21.421875 -18.953125 C 20.710938 -20.242188 19.722656 -21.253906 18.453125 -21.984375 C 17.179688 -22.710938 15.722656 -23.078125 14.078125 -23.078125 L 9.578125 -23.078125 L 9.578125 -5.828125 Z M 14.078125 -5.828125 "/></g></g></g><g fill="#ed5b2d" fill-opacity="0.302"><g transform="translate(76.925889, 165.721641)"><g><path d="M 8.484375 -17.203125 C 9.742188 -17.203125 10.90625 -16.988281 11.96875 -16.5625 C 13.03125 -16.132812 13.953125 -15.535156 14.734375 -14.765625 C 15.515625 -13.992188 16.117188 -13.085938 16.546875 -12.046875 C 16.984375 -11.015625 17.203125 -9.875 17.203125 -8.625 C 17.203125 -7.382812 16.984375 -6.238281 16.546875 -5.1875 C 16.117188 -4.132812 15.515625 -3.21875 14.734375 -2.4375 C 13.953125 -1.664062 13.03125 -1.066406 11.96875 -0.640625 C 10.90625 -0.210938 9.742188 0 8.484375 0 L 1.96875 0 L 1.96875 -17.203125 Z M 8.375 -3.46875 C 9.363281 -3.46875 10.234375 -3.6875 10.984375 -4.125 C 11.734375 -4.570312 12.320312 -5.179688 12.75 -5.953125 C 13.175781 -6.734375 13.390625 -7.625 13.390625 -8.625 C 13.390625 -9.625 13.175781 -10.507812 12.75 -11.28125 C 12.320312 -12.050781 11.734375 -12.648438 10.984375 -13.078125 C 10.234375 -13.515625 9.363281 -13.734375 8.375 -13.734375 L 5.703125 -13.734375 L 5.703125 -3.46875 Z M 8.375 -3.46875 "/></g></g></g><g fill="#ed5b2d" fill-opacity="0.302"><g transform="translate(95.139967, 165.721641)"><g><path d="M 5.703125 -3.46875 L 12.5625 -3.46875 L 12.5625 0 L 1.96875 0 L 1.96875 -17.203125 L 12.28125 -17.203125 L 12.28125 -13.765625 L 5.703125 -13.765625 L 5.703125 -10.375 L 11.65625 -10.375 L 11.65625 -7 L 5.703125 -7 Z M 5.703125 -3.46875 "/></g></g></g><g fill="#ed5b2d" fill-opacity="0.502"><g transform="translate(75.839363, 164.635123)"><g><path d="M 8.484375 -17.203125 C 9.742188 -17.203125 10.90625 -16.988281 11.96875 -16.5625 C 13.03125 -16.132812 13.953125 -15.535156 14.734375 -14.765625 C 15.515625 -13.992188 16.117188 -13.085938 16.546875 -12.046875 C 16.984375 -11.015625 17.203125 -9.875 17.203125 -8.625 C 17.203125 -7.382812 16.984375 -6.238281 16.546875 -5.1875 C 16.117188 -4.132812 15.515625 -3.21875 14.734375 -2.4375 C 13.953125 -1.664062 13.03125 -1.066406 11.96875 -0.640625 C 10.90625 -0.210938 9.742188 0 8.484375 0 L 1.96875 0 L 1.96875 -17.203125 Z M 8.375 -3.46875 C 9.363281 -3.46875 10.234375 -3.6875 10.984375 -4.125 C 11.734375 -4.570312 12.320312 -5.179688 12.75 -5.953125 C 13.175781 -6.734375 13.390625 -7.625 13.390625 -8.625 C 13.390625 -9.625 13.175781 -10.507812 12.75 -11.28125 C 12.320312 -12.050781 11.734375 -12.648438 10.984375 -13.078125 C 10.234375 -13.515625 9.363281 -13.734375 8.375 -13.734375 L 5.703125 -13.734375 L 5.703125 -3.46875 Z M 8.375 -3.46875 "/></g></g></g><g fill="#ed5b2d" fill-opacity="0.502"><g transform="translate(94.053441, 164.635123)"><g><path d="M 5.703125 -3.46875 L 12.5625 -3.46875 L 12.5625 0 L 1.96875 0 L 1.96875 -17.203125 L 12.28125 -17.203125 L 12.28125 -13.765625 L 5.703125 -13.765625 L 5.703125 -10.375 L 11.65625 -10.375 L 11.65625 -7 L 5.703125 -7 Z M 5.703125 -3.46875 "/></g></g></g><g fill="#291b25" fill-opacity="1"><g transform="translate(74.752835, 163.54859)"><g><path d="M 8.484375 -17.203125 C 9.742188 -17.203125 10.90625 -16.988281 11.96875 -16.5625 C 13.03125 -16.132812 13.953125 -15.535156 14.734375 -14.765625 C 15.515625 -13.992188 16.117188 -13.085938 16.546875 -12.046875 C 16.984375 -11.015625 17.203125 -9.875 17.203125 -8.625 C 17.203125 -7.382812 16.984375 -6.238281 16.546875 -5.1875 C 16.117188 -4.132812 15.515625 -3.21875 14.734375 -2.4375 C 13.953125 -1.664062 13.03125 -1.066406 11.96875 -0.640625 C 10.90625 -0.210938 9.742188 0 8.484375 0 L 1.96875 0 L 1.96875 -17.203125 Z M 8.375 -3.46875 C 9.363281 -3.46875 10.234375 -3.6875 10.984375 -4.125 C 11.734375 -4.570312 12.320312 -5.179688 12.75 -5.953125 C 13.175781 -6.734375 13.390625 -7.625 13.390625 -8.625 C 13.390625 -9.625 13.175781 -10.507812 12.75 -11.28125 C 12.320312 -12.050781 11.734375 -12.648438 10.984375 -13.078125 C 10.234375 -13.515625 9.363281 -13.734375 8.375 -13.734375 L 5.703125 -13.734375 L 5.703125 -3.46875 Z M 8.375 -3.46875 "/></g></g></g><g fill="#291b25" fill-opacity="1"><g transform="translate(92.966913, 163.54859)"><g><path d="M 5.703125 -3.46875 L 12.5625 -3.46875 L 12.5625 0 L 1.96875 0 L 1.96875 -17.203125 L 12.28125 -17.203125 L 12.28125 -13.765625 L 5.703125 -13.765625 L 5.703125 -10.375 L 11.65625 -10.375 L 11.65625 -7 L 5.703125 -7 Z M 5.703125 -3.46875 "/></g></g></g><g fill="#ed5b2d" fill-opacity="0.302"><g transform="translate(81.186499, 228.375046)"><g><path d="M 25.921875 1.140625 C 24.128906 1.140625 22.570312 0.769531 21.25 0.03125 C 19.9375 -0.707031 19.28125 -1.988281 19.28125 -3.8125 C 19.28125 -4.976562 19.570312 -6.273438 20.15625 -7.703125 C 20.957031 -6.804688 21.703125 -6.179688 22.390625 -5.828125 C 23.085938 -5.472656 23.835938 -5.296875 24.640625 -5.296875 C 26.878906 -5.296875 28.546875 -6.546875 29.640625 -9.046875 C 30.734375 -11.546875 31.28125 -14.3125 31.28125 -17.34375 C 31.28125 -23.007812 29.15625 -25.84375 24.90625 -25.84375 C 23.707031 -25.84375 22.679688 -25.78125 21.828125 -25.65625 L 16.34375 0 L 6.703125 0 L 15.796875 -42.59375 L 25.71875 -43.9375 L 22.5625 -29.0625 L 22.96875 -29.0625 C 24.664062 -29.0625 26.25 -29.609375 27.71875 -30.703125 C 29.195312 -31.796875 30.378906 -33.179688 31.265625 -34.859375 C 32.160156 -36.535156 32.609375 -38.21875 32.609375 -39.90625 C 32.609375 -41.96875 31.882812 -43.6875 30.4375 -45.0625 C 28.988281 -46.445312 26.769531 -47.140625 23.78125 -47.140625 C 21.050781 -47.140625 18.390625 -46.523438 15.796875 -45.296875 C 13.210938 -44.078125 11.101562 -42.238281 9.46875 -39.78125 C 7.84375 -37.320312 7.03125 -34.351562 7.03125 -30.875 C 7.03125 -29.21875 7.1875 -28.066406 7.5 -27.421875 C 7.8125 -26.773438 7.96875 -26.40625 7.96875 -26.3125 C 5.601562 -26.3125 3.816406 -26.789062 2.609375 -27.75 C 1.398438 -28.71875 0.796875 -30.296875 0.796875 -32.484375 C 0.796875 -35.515625 1.9375 -38.390625 4.21875 -41.109375 C 6.5 -43.835938 9.515625 -46.035156 13.265625 -47.703125 C 17.015625 -49.378906 20.960938 -50.21875 25.109375 -50.21875 C 28.234375 -50.21875 30.867188 -49.726562 33.015625 -48.75 C 35.160156 -47.769531 36.753906 -46.472656 37.796875 -44.859375 C 38.847656 -43.253906 39.375 -41.492188 39.375 -39.578125 C 39.375 -37.523438 38.789062 -35.535156 37.625 -33.609375 C 36.46875 -31.691406 34.820312 -30.132812 32.6875 -28.9375 C 35.363281 -28.4375 37.347656 -27.191406 38.640625 -25.203125 C 39.929688 -23.222656 40.578125 -20.875 40.578125 -18.15625 C 40.578125 -15.601562 40.097656 -12.832031 39.140625 -9.84375 C 38.179688 -6.851562 36.597656 -4.273438 34.390625 -2.109375 C 32.179688 0.0546875 29.359375 1.140625 25.921875 1.140625 Z M 25.921875 1.140625 "/></g></g></g><g fill="#ed5b2d" fill-opacity="0.302"><g transform="translate(124.100747, 228.375046)"><g><path d="M 9.578125 0.40625 C 6.273438 0.40625 3.707031 -0.453125 1.875 -2.171875 C 0.0390625 -3.890625 -0.875 -6.582031 -0.875 -10.25 C -0.875 -13.320312 -0.269531 -16.710938 0.9375 -20.421875 C 2.144531 -24.128906 4.109375 -27.332031 6.828125 -30.03125 C 9.554688 -32.738281 13.019531 -34.09375 17.21875 -34.09375 C 22.125 -34.09375 24.578125 -31.945312 24.578125 -27.65625 C 24.578125 -25.15625 23.863281 -22.851562 22.4375 -20.75 C 21.007812 -18.65625 19.109375 -16.972656 16.734375 -15.703125 C 14.367188 -14.429688 11.847656 -13.707031 9.171875 -13.53125 C 9.085938 -12.1875 9.046875 -11.289062 9.046875 -10.84375 C 9.046875 -8.65625 9.421875 -7.171875 10.171875 -6.390625 C 10.929688 -5.609375 12.160156 -5.21875 13.859375 -5.21875 C 16.273438 -5.21875 18.34375 -5.773438 20.0625 -6.890625 C 21.78125 -8.015625 23.664062 -9.710938 25.71875 -11.984375 L 28 -11.984375 C 23.039062 -3.722656 16.898438 0.40625 9.578125 0.40625 Z M 9.703125 -16.734375 C 11.359375 -16.828125 12.929688 -17.410156 14.421875 -18.484375 C 15.921875 -19.554688 17.128906 -20.914062 18.046875 -22.5625 C 18.960938 -24.21875 19.421875 -25.960938 19.421875 -27.796875 C 19.421875 -29.617188 18.863281 -30.53125 17.75 -30.53125 C 16.132812 -30.53125 14.554688 -29.125 13.015625 -26.3125 C 11.484375 -23.5 10.378906 -20.304688 9.703125 -16.734375 Z M 9.703125 -16.734375 "/></g></g></g><g fill="#ed5b2d" fill-opacity="0.302"><g transform="translate(149.809123, 228.375046)"><g><path d="M 8.03125 0.40625 C 5.488281 0.40625 3.367188 -0.460938 1.671875 -2.203125 C -0.0234375 -3.953125 -0.875 -6.675781 -0.875 -10.375 C -0.875 -13.675781 -0.21875 -17.144531 1.09375 -20.78125 C 2.414062 -24.425781 4.382812 -27.507812 7 -30.03125 C 9.613281 -32.550781 12.726562 -33.8125 16.34375 -33.8125 C 18.175781 -33.8125 19.535156 -33.5 20.421875 -32.875 C 21.316406 -32.25 21.765625 -31.425781 21.765625 -30.40625 L 21.765625 -30.140625 L 25.046875 -45.53125 L 34.953125 -46.875 L 27.25 -10.71875 C 27.070312 -10.039062 26.984375 -9.328125 26.984375 -8.578125 C 26.984375 -7.679688 27.195312 -7.039062 27.625 -6.65625 C 28.050781 -6.28125 28.753906 -6.09375 29.734375 -6.09375 C 30.984375 -6.09375 32.066406 -6.628906 32.984375 -7.703125 C 33.898438 -8.773438 34.625 -10.203125 35.15625 -11.984375 L 37.96875 -11.984375 C 35.25 -3.992188 30.765625 0 24.515625 0 C 22.679688 0 21.191406 -0.488281 20.046875 -1.46875 C 18.910156 -2.457031 18.210938 -3.890625 17.953125 -5.765625 C 16.785156 -3.972656 15.382812 -2.492188 13.75 -1.328125 C 12.125 -0.171875 10.21875 0.40625 8.03125 0.40625 Z M 12.390625 -6.09375 C 13.460938 -6.09375 14.546875 -6.582031 15.640625 -7.5625 C 16.734375 -8.550781 17.476562 -9.914062 17.875 -11.65625 L 17.875 -11.984375 L 21.15625 -27.328125 C 20.757812 -28.890625 19.847656 -29.671875 18.421875 -29.671875 C 16.628906 -29.671875 15.019531 -28.628906 13.59375 -26.546875 C 12.164062 -24.472656 11.050781 -21.972656 10.25 -19.046875 C 9.445312 -16.128906 9.046875 -13.550781 9.046875 -11.3125 C 9.046875 -9.082031 9.367188 -7.65625 10.015625 -7.03125 C 10.660156 -6.40625 11.453125 -6.09375 12.390625 -6.09375 Z M 12.390625 -6.09375 "/></g></g></g><g fill="#ed5b2d" fill-opacity="0.302"><g transform="translate(184.957294, 228.375046)"><g><path d="M 8.03125 0.40625 C 5.488281 0.40625 3.367188 -0.460938 1.671875 -2.203125 C -0.0234375 -3.953125 -0.875 -6.675781 -0.875 -10.375 C -0.875 -13.675781 -0.21875 -17.144531 1.09375 -20.78125 C 2.414062 -24.425781 4.382812 -27.507812 7 -30.03125 C 9.613281 -32.550781 12.726562 -33.8125 16.34375 -33.8125 C 18.175781 -33.8125 19.535156 -33.5 20.421875 -32.875 C 21.316406 -32.25 21.765625 -31.425781 21.765625 -30.40625 L 21.765625 -29.9375 L 22.5 -33.484375 L 32.140625 -33.484375 L 27.328125 -10.71875 C 27.148438 -10.039062 27.0625 -9.328125 27.0625 -8.578125 C 27.0625 -6.648438 27.972656 -5.6875 29.796875 -5.6875 C 31.046875 -5.6875 32.128906 -6.265625 33.046875 -7.421875 C 33.960938 -8.585938 34.6875 -10.109375 35.21875 -11.984375 L 38.03125 -11.984375 C 36.382812 -7.160156 34.34375 -3.890625 31.90625 -2.171875 C 29.476562 -0.453125 27.035156 0.40625 24.578125 0.40625 C 22.703125 0.40625 21.191406 -0.117188 20.046875 -1.171875 C 18.910156 -2.222656 18.234375 -3.753906 18.015625 -5.765625 C 16.722656 -3.929688 15.28125 -2.441406 13.6875 -1.296875 C 12.101562 -0.160156 10.21875 0.40625 8.03125 0.40625 Z M 12.390625 -6.09375 C 13.503906 -6.09375 14.609375 -6.613281 15.703125 -7.65625 C 16.796875 -8.707031 17.546875 -10.148438 17.953125 -11.984375 L 21.15625 -27.125 C 21.15625 -27.707031 20.929688 -28.273438 20.484375 -28.828125 C 20.046875 -29.390625 19.359375 -29.671875 18.421875 -29.671875 C 16.628906 -29.671875 15.019531 -28.628906 13.59375 -26.546875 C 12.164062 -24.472656 11.050781 -21.972656 10.25 -19.046875 C 9.445312 -16.128906 9.046875 -13.550781 9.046875 -11.3125 C 9.046875 -9.082031 9.367188 -7.65625 10.015625 -7.03125 C 10.660156 -6.40625 11.453125 -6.09375 12.390625 -6.09375 Z M 12.390625 -6.09375 "/></g></g></g><g fill="#ed5b2d" fill-opacity="0.302"><g transform="translate(220.172421, 228.375046)"><g><path d="M 24.171875 0.40625 C 21.453125 0.40625 19.453125 -0.316406 18.171875 -1.765625 C 16.898438 -3.222656 16.265625 -5.023438 16.265625 -7.171875 C 16.265625 -8.109375 16.375 -9.164062 16.59375 -10.34375 C 16.820312 -11.53125 17.0625 -12.679688 17.3125 -13.796875 C 17.5625 -14.910156 17.726562 -15.625 17.8125 -15.9375 C 18.164062 -17.5 18.5 -19.039062 18.8125 -20.5625 C 19.125 -22.082031 19.28125 -23.3125 19.28125 -24.25 C 19.28125 -26.519531 18.476562 -27.65625 16.875 -27.65625 C 15.71875 -27.65625 14.691406 -27.085938 13.796875 -25.953125 C 12.898438 -24.816406 12.1875 -23.332031 11.65625 -21.5 L 7.09375 0 L -2.546875 0 L 4.546875 -33.484375 L 14.203125 -33.484375 L 13.453125 -30 C 15.691406 -32.5 18.304688 -33.75 21.296875 -33.75 C 23.578125 -33.75 25.382812 -33.125 26.71875 -31.875 C 28.0625 -30.625 28.734375 -28.726562 28.734375 -26.1875 C 28.734375 -24.894531 28.578125 -23.453125 28.265625 -21.859375 C 27.953125 -20.273438 27.503906 -18.347656 26.921875 -16.078125 C 26.566406 -14.691406 26.242188 -13.335938 25.953125 -12.015625 C 25.660156 -10.703125 25.515625 -9.664062 25.515625 -8.90625 C 25.515625 -8.007812 25.710938 -7.316406 26.109375 -6.828125 C 26.515625 -6.335938 27.207031 -6.09375 28.1875 -6.09375 C 29.53125 -6.09375 30.601562 -6.570312 31.40625 -7.53125 C 32.207031 -8.488281 33.007812 -9.972656 33.8125 -11.984375 L 36.625 -11.984375 C 34.976562 -7.078125 33.070312 -3.785156 30.90625 -2.109375 C 28.738281 -0.429688 26.492188 0.40625 24.171875 0.40625 Z M 24.171875 0.40625 "/></g></g></g><g fill="#ed5b2d" fill-opacity="0.302"><g transform="translate(253.981617, 228.375046)"><g><path d="M 25.1875 0.40625 C 22.414062 0.40625 20.3125 -0.25 18.875 -1.5625 C 17.445312 -2.882812 16.734375 -4.773438 16.734375 -7.234375 C 16.734375 -8.304688 16.867188 -9.46875 17.140625 -10.71875 L 17.6875 -13.328125 C 17.863281 -14.085938 17.953125 -14.910156 17.953125 -15.796875 C 17.953125 -17.941406 17.144531 -19.015625 15.53125 -19.015625 C 14.820312 -19.015625 14.078125 -18.8125 13.296875 -18.40625 C 12.515625 -18.007812 11.609375 -17.390625 10.578125 -16.546875 L 7.09375 0 L -2.546875 0 L 7.171875 -45.53125 L 17.078125 -46.875 L 12.046875 -23.3125 L 24.984375 -33.484375 L 31.609375 -33.484375 L 18.21875 -24.171875 C 18.882812 -24.347656 19.617188 -24.4375 20.421875 -24.4375 C 22.835938 -24.4375 24.671875 -23.703125 25.921875 -22.234375 C 27.171875 -20.765625 27.796875 -18.890625 27.796875 -16.609375 C 27.796875 -15.671875 27.707031 -14.820312 27.53125 -14.0625 L 26.78125 -10.71875 C 26.5625 -9.914062 26.453125 -9.203125 26.453125 -8.578125 C 26.453125 -6.921875 27.320312 -6.09375 29.0625 -6.09375 C 30.40625 -6.09375 31.476562 -6.570312 32.28125 -7.53125 C 33.082031 -8.488281 33.882812 -9.972656 34.6875 -11.984375 L 37.5 -11.984375 C 34.726562 -3.722656 30.625 0.40625 25.1875 0.40625 Z M 25.1875 0.40625 "/></g></g></g><g fill="#ed5b2d" fill-opacity="0.302"><g transform="translate(288.661151, 228.375046)"><g><path d="M 6.625 0.40625 C 4.488281 0.40625 2.757812 -0.257812 1.4375 -1.59375 C 0.125 -2.9375 -0.53125 -4.953125 -0.53125 -7.640625 C -0.53125 -8.753906 -0.351562 -10.203125 0 -11.984375 L 4.015625 -30.8125 L 1.8125 -30.8125 L 2.34375 -33.484375 L 4.546875 -33.484375 L 6.5625 -42.71875 L 16.46875 -44.0625 L 14.203125 -33.484375 L 18.21875 -33.484375 L 17.6875 -30.8125 L 13.65625 -30.8125 L 9.375 -10.71875 C 9.195312 -10.039062 9.109375 -9.328125 9.109375 -8.578125 C 9.109375 -7.679688 9.316406 -7.039062 9.734375 -6.65625 C 10.160156 -6.28125 10.867188 -6.09375 11.859375 -6.09375 C 13.148438 -6.09375 14.351562 -6.640625 15.46875 -7.734375 C 16.582031 -8.828125 17.382812 -10.242188 17.875 -11.984375 L 20.6875 -11.984375 C 19.039062 -7.160156 16.921875 -3.890625 14.328125 -2.171875 C 11.742188 -0.453125 9.175781 0.40625 6.625 0.40625 Z M 6.625 0.40625 "/></g></g></g><g fill="#ed5b2d" fill-opacity="0.502"><g transform="translate(78.226908, 225.41546)"><g><path d="M 25.921875 1.140625 C 24.128906 1.140625 22.570312 0.769531 21.25 0.03125 C 19.9375 -0.707031 19.28125 -1.988281 19.28125 -3.8125 C 19.28125 -4.976562 19.570312 -6.273438 20.15625 -7.703125 C 20.957031 -6.804688 21.703125 -6.179688 22.390625 -5.828125 C 23.085938 -5.472656 23.835938 -5.296875 24.640625 -5.296875 C 26.878906 -5.296875 28.546875 -6.546875 29.640625 -9.046875 C 30.734375 -11.546875 31.28125 -14.3125 31.28125 -17.34375 C 31.28125 -23.007812 29.15625 -25.84375 24.90625 -25.84375 C 23.707031 -25.84375 22.679688 -25.78125 21.828125 -25.65625 L 16.34375 0 L 6.703125 0 L 15.796875 -42.59375 L 25.71875 -43.9375 L 22.5625 -29.0625 L 22.96875 -29.0625 C 24.664062 -29.0625 26.25 -29.609375 27.71875 -30.703125 C 29.195312 -31.796875 30.378906 -33.179688 31.265625 -34.859375 C 32.160156 -36.535156 32.609375 -38.21875 32.609375 -39.90625 C 32.609375 -41.96875 31.882812 -43.6875 30.4375 -45.0625 C 28.988281 -46.445312 26.769531 -47.140625 23.78125 -47.140625 C 21.050781 -47.140625 18.390625 -46.523438 15.796875 -45.296875 C 13.210938 -44.078125 11.101562 -42.238281 9.46875 -39.78125 C 7.84375 -37.320312 7.03125 -34.351562 7.03125 -30.875 C 7.03125 -29.21875 7.1875 -28.066406 7.5 -27.421875 C 7.8125 -26.773438 7.96875 -26.40625 7.96875 -26.3125 C 5.601562 -26.3125 3.816406 -26.789062 2.609375 -27.75 C 1.398438 -28.71875 0.796875 -30.296875 0.796875 -32.484375 C 0.796875 -35.515625 1.9375 -38.390625 4.21875 -41.109375 C 6.5 -43.835938 9.515625 -46.035156 13.265625 -47.703125 C 17.015625 -49.378906 20.960938 -50.21875 25.109375 -50.21875 C 28.234375 -50.21875 30.867188 -49.726562 33.015625 -48.75 C 35.160156 -47.769531 36.753906 -46.472656 37.796875 -44.859375 C 38.847656 -43.253906 39.375 -41.492188 39.375 -39.578125 C 39.375 -37.523438 38.789062 -35.535156 37.625 -33.609375 C 36.46875 -31.691406 34.820312 -30.132812 32.6875 -28.9375 C 35.363281 -28.4375 37.347656 -27.191406 38.640625 -25.203125 C 39.929688 -23.222656 40.578125 -20.875 40.578125 -18.15625 C 40.578125 -15.601562 40.097656 -12.832031 39.140625 -9.84375 C 38.179688 -6.851562 36.597656 -4.273438 34.390625 -2.109375 C 32.179688 0.0546875 29.359375 1.140625 25.921875 1.140625 Z M 25.921875 1.140625 "/></g></g></g><g fill="#ed5b2d" fill-opacity="0.502"><g transform="translate(121.141156, 225.41546)"><g><path d="M 9.578125 0.40625 C 6.273438 0.40625 3.707031 -0.453125 1.875 -2.171875 C 0.0390625 -3.890625 -0.875 -6.582031 -0.875 -10.25 C -0.875 -13.320312 -0.269531 -16.710938 0.9375 -20.421875 C 2.144531 -24.128906 4.109375 -27.332031 6.828125 -30.03125 C 9.554688 -32.738281 13.019531 -34.09375 17.21875 -34.09375 C 22.125 -34.09375 24.578125 -31.945312 24.578125 -27.65625 C 24.578125 -25.15625 23.863281 -22.851562 22.4375 -20.75 C 21.007812 -18.65625 19.109375 -16.972656 16.734375 -15.703125 C 14.367188 -14.429688 11.847656 -13.707031 9.171875 -13.53125 C 9.085938 -12.1875 9.046875 -11.289062 9.046875 -10.84375 C 9.046875 -8.65625 9.421875 -7.171875 10.171875 -6.390625 C 10.929688 -5.609375 12.160156 -5.21875 13.859375 -5.21875 C 16.273438 -5.21875 18.34375 -5.773438 20.0625 -6.890625 C 21.78125 -8.015625 23.664062 -9.710938 25.71875 -11.984375 L 28 -11.984375 C 23.039062 -3.722656 16.898438 0.40625 9.578125 0.40625 Z M 9.703125 -16.734375 C 11.359375 -16.828125 12.929688 -17.410156 14.421875 -18.484375 C 15.921875 -19.554688 17.128906 -20.914062 18.046875 -22.5625 C 18.960938 -24.21875 19.421875 -25.960938 19.421875 -27.796875 C 19.421875 -29.617188 18.863281 -30.53125 17.75 -30.53125 C 16.132812 -30.53125 14.554688 -29.125 13.015625 -26.3125 C 11.484375 -23.5 10.378906 -20.304688 9.703125 -16.734375 Z M 9.703125 -16.734375 "/></g></g></g><g fill="#ed5b2d" fill-opacity="0.502"><g transform="translate(146.849532, 225.41546)"><g><path d="M 8.03125 0.40625 C 5.488281 0.40625 3.367188 -0.460938 1.671875 -2.203125 C -0.0234375 -3.953125 -0.875 -6.675781 -0.875 -10.375 C -0.875 -13.675781 -0.21875 -17.144531 1.09375 -20.78125 C 2.414062 -24.425781 4.382812 -27.507812 7 -30.03125 C 9.613281 -32.550781 12.726562 -33.8125 16.34375 -33.8125 C 18.175781 -33.8125 19.535156 -33.5 20.421875 -32.875 C 21.316406 -32.25 21.765625 -31.425781 21.765625 -30.40625 L 21.765625 -30.140625 L 25.046875 -45.53125 L 34.953125 -46.875 L 27.25 -10.71875 C 27.070312 -10.039062 26.984375 -9.328125 26.984375 -8.578125 C 26.984375 -7.679688 27.195312 -7.039062 27.625 -6.65625 C 28.050781 -6.28125 28.753906 -6.09375 29.734375 -6.09375 C 30.984375 -6.09375 32.066406 -6.628906 32.984375 -7.703125 C 33.898438 -8.773438 34.625 -10.203125 35.15625 -11.984375 L 37.96875 -11.984375 C 35.25 -3.992188 30.765625 0 24.515625 0 C 22.679688 0 21.191406 -0.488281 20.046875 -1.46875 C 18.910156 -2.457031 18.210938 -3.890625 17.953125 -5.765625 C 16.785156 -3.972656 15.382812 -2.492188 13.75 -1.328125 C 12.125 -0.171875 10.21875 0.40625 8.03125 0.40625 Z M 12.390625 -6.09375 C 13.460938 -6.09375 14.546875 -6.582031 15.640625 -7.5625 C 16.734375 -8.550781 17.476562 -9.914062 17.875 -11.65625 L 17.875 -11.984375 L 21.15625 -27.328125 C 20.757812 -28.890625 19.847656 -29.671875 18.421875 -29.671875 C 16.628906 -29.671875 15.019531 -28.628906 13.59375 -26.546875 C 12.164062 -24.472656 11.050781 -21.972656 10.25 -19.046875 C 9.445312 -16.128906 9.046875 -13.550781 9.046875 -11.3125 C 9.046875 -9.082031 9.367188 -7.65625 10.015625 -7.03125 C 10.660156 -6.40625 11.453125 -6.09375 12.390625 -6.09375 Z M 12.390625 -6.09375 "/></g></g></g><g fill="#ed5b2d" fill-opacity="0.502"><g transform="translate(181.997703, 225.41546)"><g><path d="M 8.03125 0.40625 C 5.488281 0.40625 3.367188 -0.460938 1.671875 -2.203125 C -0.0234375 -3.953125 -0.875 -6.675781 -0.875 -10.375 C -0.875 -13.675781 -0.21875 -17.144531 1.09375 -20.78125 C 2.414062 -24.425781 4.382812 -27.507812 7 -30.03125 C 9.613281 -32.550781 12.726562 -33.8125 16.34375 -33.8125 C 18.175781 -33.8125 19.535156 -33.5 20.421875 -32.875 C 21.316406 -32.25 21.765625 -31.425781 21.765625 -30.40625 L 21.765625 -29.9375 L 22.5 -33.484375 L 32.140625 -33.484375 L 27.328125 -10.71875 C 27.148438 -10.039062 27.0625 -9.328125 27.0625 -8.578125 C 27.0625 -6.648438 27.972656 -5.6875 29.796875 -5.6875 C 31.046875 -5.6875 32.128906 -6.265625 33.046875 -7.421875 C 33.960938 -8.585938 34.6875 -10.109375 35.21875 -11.984375 L 38.03125 -11.984375 C 36.382812 -7.160156 34.34375 -3.890625 31.90625 -2.171875 C 29.476562 -0.453125 27.035156 0.40625 24.578125 0.40625 C 22.703125 0.40625 21.191406 -0.117188 20.046875 -1.171875 C 18.910156 -2.222656 18.234375 -3.753906 18.015625 -5.765625 C 16.722656 -3.929688 15.28125 -2.441406 13.6875 -1.296875 C 12.101562 -0.160156 10.21875 0.40625 8.03125 0.40625 Z M 12.390625 -6.09375 C 13.503906 -6.09375 14.609375 -6.613281 15.703125 -7.65625 C 16.796875 -8.707031 17.546875 -10.148438 17.953125 -11.984375 L 21.15625 -27.125 C 21.15625 -27.707031 20.929688 -28.273438 20.484375 -28.828125 C 20.046875 -29.390625 19.359375 -29.671875 18.421875 -29.671875 C 16.628906 -29.671875 15.019531 -28.628906 13.59375 -26.546875 C 12.164062 -24.472656 11.050781 -21.972656 10.25 -19.046875 C 9.445312 -16.128906 9.046875 -13.550781 9.046875 -11.3125 C 9.046875 -9.082031 9.367188 -7.65625 10.015625 -7.03125 C 10.660156 -6.40625 11.453125 -6.09375 12.390625 -6.09375 Z M 12.390625 -6.09375 "/></g></g></g><g fill="#ed5b2d" fill-opacity="0.502"><g transform="translate(217.21283, 225.41546)"><g><path d="M 24.171875 0.40625 C 21.453125 0.40625 19.453125 -0.316406 18.171875 -1.765625 C 16.898438 -3.222656 16.265625 -5.023438 16.265625 -7.171875 C 16.265625 -8.109375 16.375 -9.164062 16.59375 -10.34375 C 16.820312 -11.53125 17.0625 -12.679688 17.3125 -13.796875 C 17.5625 -14.910156 17.726562 -15.625 17.8125 -15.9375 C 18.164062 -17.5 18.5 -19.039062 18.8125 -20.5625 C 19.125 -22.082031 19.28125 -23.3125 19.28125 -24.25 C 19.28125 -26.519531 18.476562 -27.65625 16.875 -27.65625 C 15.71875 -27.65625 14.691406 -27.085938 13.796875 -25.953125 C 12.898438 -24.816406 12.1875 -23.332031 11.65625 -21.5 L 7.09375 0 L -2.546875 0 L 4.546875 -33.484375 L 14.203125 -33.484375 L 13.453125 -30 C 15.691406 -32.5 18.304688 -33.75 21.296875 -33.75 C 23.578125 -33.75 25.382812 -33.125 26.71875 -31.875 C 28.0625 -30.625 28.734375 -28.726562 28.734375 -26.1875 C 28.734375 -24.894531 28.578125 -23.453125 28.265625 -21.859375 C 27.953125 -20.273438 27.503906 -18.347656 26.921875 -16.078125 C 26.566406 -14.691406 26.242188 -13.335938 25.953125 -12.015625 C 25.660156 -10.703125 25.515625 -9.664062 25.515625 -8.90625 C 25.515625 -8.007812 25.710938 -7.316406 26.109375 -6.828125 C 26.515625 -6.335938 27.207031 -6.09375 28.1875 -6.09375 C 29.53125 -6.09375 30.601562 -6.570312 31.40625 -7.53125 C 32.207031 -8.488281 33.007812 -9.972656 33.8125 -11.984375 L 36.625 -11.984375 C 34.976562 -7.078125 33.070312 -3.785156 30.90625 -2.109375 C 28.738281 -0.429688 26.492188 0.40625 24.171875 0.40625 Z M 24.171875 0.40625 "/></g></g></g><g fill="#ed5b2d" fill-opacity="0.502"><g transform="translate(251.022026, 225.41546)"><g><path d="M 25.1875 0.40625 C 22.414062 0.40625 20.3125 -0.25 18.875 -1.5625 C 17.445312 -2.882812 16.734375 -4.773438 16.734375 -7.234375 C 16.734375 -8.304688 16.867188 -9.46875 17.140625 -10.71875 L 17.6875 -13.328125 C 17.863281 -14.085938 17.953125 -14.910156 17.953125 -15.796875 C 17.953125 -17.941406 17.144531 -19.015625 15.53125 -19.015625 C 14.820312 -19.015625 14.078125 -18.8125 13.296875 -18.40625 C 12.515625 -18.007812 11.609375 -17.390625 10.578125 -16.546875 L 7.09375 0 L -2.546875 0 L 7.171875 -45.53125 L 17.078125 -46.875 L 12.046875 -23.3125 L 24.984375 -33.484375 L 31.609375 -33.484375 L 18.21875 -24.171875 C 18.882812 -24.347656 19.617188 -24.4375 20.421875 -24.4375 C 22.835938 -24.4375 24.671875 -23.703125 25.921875 -22.234375 C 27.171875 -20.765625 27.796875 -18.890625 27.796875 -16.609375 C 27.796875 -15.671875 27.707031 -14.820312 27.53125 -14.0625 L 26.78125 -10.71875 C 26.5625 -9.914062 26.453125 -9.203125 26.453125 -8.578125 C 26.453125 -6.921875 27.320312 -6.09375 29.0625 -6.09375 C 30.40625 -6.09375 31.476562 -6.570312 32.28125 -7.53125 C 33.082031 -8.488281 33.882812 -9.972656 34.6875 -11.984375 L 37.5 -11.984375 C 34.726562 -3.722656 30.625 0.40625 25.1875 0.40625 Z M 25.1875 0.40625 "/></g></g></g><g fill="#ed5b2d" fill-opacity="0.502"><g transform="translate(285.70156, 225.41546)"><g><path d="M 6.625 0.40625 C 4.488281 0.40625 2.757812 -0.257812 1.4375 -1.59375 C 0.125 -2.9375 -0.53125 -4.953125 -0.53125 -7.640625 C -0.53125 -8.753906 -0.351562 -10.203125 0 -11.984375 L 4.015625 -30.8125 L 1.8125 -30.8125 L 2.34375 -33.484375 L 4.546875 -33.484375 L 6.5625 -42.71875 L 16.46875 -44.0625 L 14.203125 -33.484375 L 18.21875 -33.484375 L 17.6875 -30.8125 L 13.65625 -30.8125 L 9.375 -10.71875 C 9.195312 -10.039062 9.109375 -9.328125 9.109375 -8.578125 C 9.109375 -7.679688 9.316406 -7.039062 9.734375 -6.65625 C 10.160156 -6.28125 10.867188 -6.09375 11.859375 -6.09375 C 13.148438 -6.09375 14.351562 -6.640625 15.46875 -7.734375 C 16.582031 -8.828125 17.382812 -10.242188 17.875 -11.984375 L 20.6875 -11.984375 C 19.039062 -7.160156 16.921875 -3.890625 14.328125 -2.171875 C 11.742188 -0.453125 9.175781 0.40625 6.625 0.40625 Z M 6.625 0.40625 "/></g></g></g><g fill="#291b25" fill-opacity="1"><g transform="translate(75.267316, 222.455862)"><g><path d="M 25.921875 1.140625 C 24.128906 1.140625 22.570312 0.769531 21.25 0.03125 C 19.9375 -0.707031 19.28125 -1.988281 19.28125 -3.8125 C 19.28125 -4.976562 19.570312 -6.273438 20.15625 -7.703125 C 20.957031 -6.804688 21.703125 -6.179688 22.390625 -5.828125 C 23.085938 -5.472656 23.835938 -5.296875 24.640625 -5.296875 C 26.878906 -5.296875 28.546875 -6.546875 29.640625 -9.046875 C 30.734375 -11.546875 31.28125 -14.3125 31.28125 -17.34375 C 31.28125 -23.007812 29.15625 -25.84375 24.90625 -25.84375 C 23.707031 -25.84375 22.679688 -25.78125 21.828125 -25.65625 L 16.34375 0 L 6.703125 0 L 15.796875 -42.59375 L 25.71875 -43.9375 L 22.5625 -29.0625 L 22.96875 -29.0625 C 24.664062 -29.0625 26.25 -29.609375 27.71875 -30.703125 C 29.195312 -31.796875 30.378906 -33.179688 31.265625 -34.859375 C 32.160156 -36.535156 32.609375 -38.21875 32.609375 -39.90625 C 32.609375 -41.96875 31.882812 -43.6875 30.4375 -45.0625 C 28.988281 -46.445312 26.769531 -47.140625 23.78125 -47.140625 C 21.050781 -47.140625 18.390625 -46.523438 15.796875 -45.296875 C 13.210938 -44.078125 11.101562 -42.238281 9.46875 -39.78125 C 7.84375 -37.320312 7.03125 -34.351562 7.03125 -30.875 C 7.03125 -29.21875 7.1875 -28.066406 7.5 -27.421875 C 7.8125 -26.773438 7.96875 -26.40625 7.96875 -26.3125 C 5.601562 -26.3125 3.816406 -26.789062 2.609375 -27.75 C 1.398438 -28.71875 0.796875 -30.296875 0.796875 -32.484375 C 0.796875 -35.515625 1.9375 -38.390625 4.21875 -41.109375 C 6.5 -43.835938 9.515625 -46.035156 13.265625 -47.703125 C 17.015625 -49.378906 20.960938 -50.21875 25.109375 -50.21875 C 28.234375 -50.21875 30.867188 -49.726562 33.015625 -48.75 C 35.160156 -47.769531 36.753906 -46.472656 37.796875 -44.859375 C 38.847656 -43.253906 39.375 -41.492188 39.375 -39.578125 C 39.375 -37.523438 38.789062 -35.535156 37.625 -33.609375 C 36.46875 -31.691406 34.820312 -30.132812 32.6875 -28.9375 C 35.363281 -28.4375 37.347656 -27.191406 38.640625 -25.203125 C 39.929688 -23.222656 40.578125 -20.875 40.578125 -18.15625 C 40.578125 -15.601562 40.097656 -12.832031 39.140625 -9.84375 C 38.179688 -6.851562 36.597656 -4.273438 34.390625 -2.109375 C 32.179688 0.0546875 29.359375 1.140625 25.921875 1.140625 Z M 25.921875 1.140625 "/></g></g></g><g fill="#291b25" fill-opacity="1"><g transform="translate(118.181564, 222.455862)"><g><path d="M 9.578125 0.40625 C 6.273438 0.40625 3.707031 -0.453125 1.875 -2.171875 C 0.0390625 -3.890625 -0.875 -6.582031 -0.875 -10.25 C -0.875 -13.320312 -0.269531 -16.710938 0.9375 -20.421875 C 2.144531 -24.128906 4.109375 -27.332031 6.828125 -30.03125 C 9.554688 -32.738281 13.019531 -34.09375 17.21875 -34.09375 C 22.125 -34.09375 24.578125 -31.945312 24.578125 -27.65625 C 24.578125 -25.15625 23.863281 -22.851562 22.4375 -20.75 C 21.007812 -18.65625 19.109375 -16.972656 16.734375 -15.703125 C 14.367188 -14.429688 11.847656 -13.707031 9.171875 -13.53125 C 9.085938 -12.1875 9.046875 -11.289062 9.046875 -10.84375 C 9.046875 -8.65625 9.421875 -7.171875 10.171875 -6.390625 C 10.929688 -5.609375 12.160156 -5.21875 13.859375 -5.21875 C 16.273438 -5.21875 18.34375 -5.773438 20.0625 -6.890625 C 21.78125 -8.015625 23.664062 -9.710938 25.71875 -11.984375 L 28 -11.984375 C 23.039062 -3.722656 16.898438 0.40625 9.578125 0.40625 Z M 9.703125 -16.734375 C 11.359375 -16.828125 12.929688 -17.410156 14.421875 -18.484375 C 15.921875 -19.554688 17.128906 -20.914062 18.046875 -22.5625 C 18.960938 -24.21875 19.421875 -25.960938 19.421875 -27.796875 C 19.421875 -29.617188 18.863281 -30.53125 17.75 -30.53125 C 16.132812 -30.53125 14.554688 -29.125 13.015625 -26.3125 C 11.484375 -23.5 10.378906 -20.304688 9.703125 -16.734375 Z M 9.703125 -16.734375 "/></g></g></g><g fill="#291b25" fill-opacity="1"><g transform="translate(143.88994, 222.455862)"><g><path d="M 8.03125 0.40625 C 5.488281 0.40625 3.367188 -0.460938 1.671875 -2.203125 C -0.0234375 -3.953125 -0.875 -6.675781 -0.875 -10.375 C -0.875 -13.675781 -0.21875 -17.144531 1.09375 -20.78125 C 2.414062 -24.425781 4.382812 -27.507812 7 -30.03125 C 9.613281 -32.550781 12.726562 -33.8125 16.34375 -33.8125 C 18.175781 -33.8125 19.535156 -33.5 20.421875 -32.875 C 21.316406 -32.25 21.765625 -31.425781 21.765625 -30.40625 L 21.765625 -30.140625 L 25.046875 -45.53125 L 34.953125 -46.875 L 27.25 -10.71875 C 27.070312 -10.039062 26.984375 -9.328125 26.984375 -8.578125 C 26.984375 -7.679688 27.195312 -7.039062 27.625 -6.65625 C 28.050781 -6.28125 28.753906 -6.09375 29.734375 -6.09375 C 30.984375 -6.09375 32.066406 -6.628906 32.984375 -7.703125 C 33.898438 -8.773438 34.625 -10.203125 35.15625 -11.984375 L 37.96875 -11.984375 C 35.25 -3.992188 30.765625 0 24.515625 0 C 22.679688 0 21.191406 -0.488281 20.046875 -1.46875 C 18.910156 -2.457031 18.210938 -3.890625 17.953125 -5.765625 C 16.785156 -3.972656 15.382812 -2.492188 13.75 -1.328125 C 12.125 -0.171875 10.21875 0.40625 8.03125 0.40625 Z M 12.390625 -6.09375 C 13.460938 -6.09375 14.546875 -6.582031 15.640625 -7.5625 C 16.734375 -8.550781 17.476562 -9.914062 17.875 -11.65625 L 17.875 -11.984375 L 21.15625 -27.328125 C 20.757812 -28.890625 19.847656 -29.671875 18.421875 -29.671875 C 16.628906 -29.671875 15.019531 -28.628906 13.59375 -26.546875 C 12.164062 -24.472656 11.050781 -21.972656 10.25 -19.046875 C 9.445312 -16.128906 9.046875 -13.550781 9.046875 -11.3125 C 9.046875 -9.082031 9.367188 -7.65625 10.015625 -7.03125 C 10.660156 -6.40625 11.453125 -6.09375 12.390625 -6.09375 Z M 12.390625 -6.09375 "/></g></g></g><g fill="#291b25" fill-opacity="1"><g transform="translate(179.038111, 222.455862)"><g><path d="M 8.03125 0.40625 C 5.488281 0.40625 3.367188 -0.460938 1.671875 -2.203125 C -0.0234375 -3.953125 -0.875 -6.675781 -0.875 -10.375 C -0.875 -13.675781 -0.21875 -17.144531 1.09375 -20.78125 C 2.414062 -24.425781 4.382812 -27.507812 7 -30.03125 C 9.613281 -32.550781 12.726562 -33.8125 16.34375 -33.8125 C 18.175781 -33.8125 19.535156 -33.5 20.421875 -32.875 C 21.316406 -32.25 21.765625 -31.425781 21.765625 -30.40625 L 21.765625 -29.9375 L 22.5 -33.484375 L 32.140625 -33.484375 L 27.328125 -10.71875 C 27.148438 -10.039062 27.0625 -9.328125 27.0625 -8.578125 C 27.0625 -6.648438 27.972656 -5.6875 29.796875 -5.6875 C 31.046875 -5.6875 32.128906 -6.265625 33.046875 -7.421875 C 33.960938 -8.585938 34.6875 -10.109375 35.21875 -11.984375 L 38.03125 -11.984375 C 36.382812 -7.160156 34.34375 -3.890625 31.90625 -2.171875 C 29.476562 -0.453125 27.035156 0.40625 24.578125 0.40625 C 22.703125 0.40625 21.191406 -0.117188 20.046875 -1.171875 C 18.910156 -2.222656 18.234375 -3.753906 18.015625 -5.765625 C 16.722656 -3.929688 15.28125 -2.441406 13.6875 -1.296875 C 12.101562 -0.160156 10.21875 0.40625 8.03125 0.40625 Z M 12.390625 -6.09375 C 13.503906 -6.09375 14.609375 -6.613281 15.703125 -7.65625 C 16.796875 -8.707031 17.546875 -10.148438 17.953125 -11.984375 L 21.15625 -27.125 C 21.15625 -27.707031 20.929688 -28.273438 20.484375 -28.828125 C 20.046875 -29.390625 19.359375 -29.671875 18.421875 -29.671875 C 16.628906 -29.671875 15.019531 -28.628906 13.59375 -26.546875 C 12.164062 -24.472656 11.050781 -21.972656 10.25 -19.046875 C 9.445312 -16.128906 9.046875 -13.550781 9.046875 -11.3125 C 9.046875 -9.082031 9.367188 -7.65625 10.015625 -7.03125 C 10.660156 -6.40625 11.453125 -6.09375 12.390625 -6.09375 Z M 12.390625 -6.09375 "/></g></g></g><g fill="#291b25" fill-opacity="1"><g transform="translate(214.253238, 222.455862)"><g><path d="M 24.171875 0.40625 C 21.453125 0.40625 19.453125 -0.316406 18.171875 -1.765625 C 16.898438 -3.222656 16.265625 -5.023438 16.265625 -7.171875 C 16.265625 -8.109375 16.375 -9.164062 16.59375 -10.34375 C 16.820312 -11.53125 17.0625 -12.679688 17.3125 -13.796875 C 17.5625 -14.910156 17.726562 -15.625 17.8125 -15.9375 C 18.164062 -17.5 18.5 -19.039062 18.8125 -20.5625 C 19.125 -22.082031 19.28125 -23.3125 19.28125 -24.25 C 19.28125 -26.519531 18.476562 -27.65625 16.875 -27.65625 C 15.71875 -27.65625 14.691406 -27.085938 13.796875 -25.953125 C 12.898438 -24.816406 12.1875 -23.332031 11.65625 -21.5 L 7.09375 0 L -2.546875 0 L 4.546875 -33.484375 L 14.203125 -33.484375 L 13.453125 -30 C 15.691406 -32.5 18.304688 -33.75 21.296875 -33.75 C 23.578125 -33.75 25.382812 -33.125 26.71875 -31.875 C 28.0625 -30.625 28.734375 -28.726562 28.734375 -26.1875 C 28.734375 -24.894531 28.578125 -23.453125 28.265625 -21.859375 C 27.953125 -20.273438 27.503906 -18.347656 26.921875 -16.078125 C 26.566406 -14.691406 26.242188 -13.335938 25.953125 -12.015625 C 25.660156 -10.703125 25.515625 -9.664062 25.515625 -8.90625 C 25.515625 -8.007812 25.710938 -7.316406 26.109375 -6.828125 C 26.515625 -6.335938 27.207031 -6.09375 28.1875 -6.09375 C 29.53125 -6.09375 30.601562 -6.570312 31.40625 -7.53125 C 32.207031 -8.488281 33.007812 -9.972656 33.8125 -11.984375 L 36.625 -11.984375 C 34.976562 -7.078125 33.070312 -3.785156 30.90625 -2.109375 C 28.738281 -0.429688 26.492188 0.40625 24.171875 0.40625 Z M 24.171875 0.40625 "/></g></g></g><g fill="#291b25" fill-opacity="1"><g transform="translate(248.062434, 222.455862)"><g><path d="M 25.1875 0.40625 C 22.414062 0.40625 20.3125 -0.25 18.875 -1.5625 C 17.445312 -2.882812 16.734375 -4.773438 16.734375 -7.234375 C 16.734375 -8.304688 16.867188 -9.46875 17.140625 -10.71875 L 17.6875 -13.328125 C 17.863281 -14.085938 17.953125 -14.910156 17.953125 -15.796875 C 17.953125 -17.941406 17.144531 -19.015625 15.53125 -19.015625 C 14.820312 -19.015625 14.078125 -18.8125 13.296875 -18.40625 C 12.515625 -18.007812 11.609375 -17.390625 10.578125 -16.546875 L 7.09375 0 L -2.546875 0 L 7.171875 -45.53125 L 17.078125 -46.875 L 12.046875 -23.3125 L 24.984375 -33.484375 L 31.609375 -33.484375 L 18.21875 -24.171875 C 18.882812 -24.347656 19.617188 -24.4375 20.421875 -24.4375 C 22.835938 -24.4375 24.671875 -23.703125 25.921875 -22.234375 C 27.171875 -20.765625 27.796875 -18.890625 27.796875 -16.609375 C 27.796875 -15.671875 27.707031 -14.820312 27.53125 -14.0625 L 26.78125 -10.71875 C 26.5625 -9.914062 26.453125 -9.203125 26.453125 -8.578125 C 26.453125 -6.921875 27.320312 -6.09375 29.0625 -6.09375 C 30.40625 -6.09375 31.476562 -6.570312 32.28125 -7.53125 C 33.082031 -8.488281 33.882812 -9.972656 34.6875 -11.984375 L 37.5 -11.984375 C 34.726562 -3.722656 30.625 0.40625 25.1875 0.40625 Z M 25.1875 0.40625 "/></g></g></g><g fill="#291b25" fill-opacity="1"><g transform="translate(282.741968, 222.455862)"><g><path d="M 6.625 0.40625 C 4.488281 0.40625 2.757812 -0.257812 1.4375 -1.59375 C 0.125 -2.9375 -0.53125 -4.953125 -0.53125 -7.640625 C -0.53125 -8.753906 -0.351562 -10.203125 0 -11.984375 L 4.015625 -30.8125 L 1.8125 -30.8125 L 2.34375 -33.484375 L 4.546875 -33.484375 L 6.5625 -42.71875 L 16.46875 -44.0625 L 14.203125 -33.484375 L 18.21875 -33.484375 L 17.6875 -30.8125 L 13.65625 -30.8125 L 9.375 -10.71875 C 9.195312 -10.039062 9.109375 -9.328125 9.109375 -8.578125 C 9.109375 -7.679688 9.316406 -7.039062 9.734375 -6.65625 C 10.160156 -6.28125 10.867188 -6.09375 11.859375 -6.09375 C 13.148438 -6.09375 14.351562 -6.640625 15.46875 -7.734375 C 16.582031 -8.828125 17.382812 -10.242188 17.875 -11.984375 L 20.6875 -11.984375 C 19.039062 -7.160156 16.921875 -3.890625 14.328125 -2.171875 C 11.742188 -0.453125 9.175781 0.40625 6.625 0.40625 Z M 6.625 0.40625 "/></g></g></g></svg>
